<svg width="1440" height="1240" viewBox="0 0 1440 1240" fill="none" xmlns="http://www.w3.org/2000/svg">
<path d="M1633.5 214C1633.5 479.916 1408.99 697.5 1129.5 697.5C850.013 697.5 625.5 479.916 625.5 214C625.5 -51.9164 850.013 -269.5 1129.5 -269.5C1408.99 -269.5 1633.5 -51.9164 1633.5 214Z" stroke="white" stroke-width="61"/>
<path d="M1783 102C1783 543.799 1409.98 905 946 905C482.019 905 109 543.799 109 102C109 -339.799 482.019 -701 946 -701C1409.98 -701 1783 -339.799 1783 102Z" stroke="white" stroke-width="92"/>
<path d="M1964 -31.5C1964 630.703 1405.09 1172 710 1172C14.9144 1172 -544 630.703 -544 -31.5C-544 -693.703 14.9144 -1235 710 -1235C1405.09 -1235 1964 -693.703 1964 -31.5Z" stroke="white" stroke-width="136"/>
</svg>
