<svg width="32" height="32" viewBox="0 0 32 32" fill="none" xmlns="http://www.w3.org/2000/svg">
<path d="M3.99967 12.6667H1.33301V27.3333C1.33301 28.8133 2.51967 30 3.99967 30H26.6663V27.3333H3.99967V12.6667Z" fill="#77AC2C"/>
<path d="M23.9997 7.33333V4.66667C23.9997 3.2 22.7997 2 21.333 2H15.9997C14.533 2 13.333 3.2 13.333 4.66667V7.33333H6.66634V22C6.66634 23.4667 7.86634 24.6667 9.33301 24.6667H27.9997C29.4663 24.6667 30.6663 23.4667 30.6663 22V7.33333H23.9997ZM15.9997 4.66667H21.333V7.33333H15.9997V4.66667ZM27.9997 22H9.33301V10H27.9997V22Z" fill="#77AC2C"/>
</svg>
