<svg width="32" height="32" viewBox="0 0 32 32" fill="none" xmlns="http://www.w3.org/2000/svg">
<path d="M20.6665 14.6667C21.7711 14.6667 22.6665 13.7712 22.6665 12.6667C22.6665 11.5621 21.7711 10.6667 20.6665 10.6667C19.5619 10.6667 18.6665 11.5621 18.6665 12.6667C18.6665 13.7712 19.5619 14.6667 20.6665 14.6667Z" fill="#DFF1C7"/>
<path d="M11.3332 14.6667C12.4377 14.6667 13.3332 13.7712 13.3332 12.6667C13.3332 11.5621 12.4377 10.6667 11.3332 10.6667C10.2286 10.6667 9.33317 11.5621 9.33317 12.6667C9.33317 13.7712 10.2286 14.6667 11.3332 14.6667Z" fill="#DFF1C7"/>
<path d="M15.9998 24C19.0398 24 21.6265 21.7867 22.6665 18.6667H9.33317C10.3732 21.7867 12.9598 24 15.9998 24Z" fill="#DFF1C7"/>
<path d="M15.9865 2.66666C8.6265 2.66666 2.6665 8.63999 2.6665 16C2.6665 23.36 8.6265 29.3333 15.9865 29.3333C23.3598 29.3333 29.3332 23.36 29.3332 16C29.3332 8.63999 23.3598 2.66666 15.9865 2.66666ZM15.9998 26.6667C10.1065 26.6667 5.33317 21.8933 5.33317 16C5.33317 10.1067 10.1065 5.33332 15.9998 5.33332C21.8932 5.33332 26.6665 10.1067 26.6665 16C26.6665 21.8933 21.8932 26.6667 15.9998 26.6667Z" fill="#DFF1C7"/>
</svg>
