<svg width="27" height="27" viewBox="0 0 27 27" fill="none" xmlns="http://www.w3.org/2000/svg">
<rect width="27" height="27" rx="8" fill="#77AC2C"/>
<path d="M8.79464 20.9621V9.61607H5.26562V20.9621H8.79464ZM7.01116 8.09821C8.14955 8.09821 9.06027 7.14955 9.06027 6.01116C9.06027 4.91071 8.14955 4 7.01116 4C5.91071 4 5 4.91071 5 6.01116C5 7.14955 5.91071 8.09821 7.01116 8.09821ZM21.9621 20.9621H22V14.7388C22 11.7031 21.317 9.35045 17.75 9.35045C16.0424 9.35045 14.904 10.2991 14.4107 11.1719H14.3728V9.61607H10.9955V20.9621H14.5246V15.346C14.5246 13.8661 14.7902 12.4621 16.6116 12.4621C18.433 12.4621 18.471 14.1317 18.471 15.4598V20.9621H21.9621Z" fill="#DFF1C7"/>
</svg>
