<svg width="41" height="40" viewBox="0 0 41 40" fill="none" xmlns="http://www.w3.org/2000/svg">
<path d="M37.1663 16.6333V31.6667C37.1663 33.5 35.6663 35 33.833 35H7.16634C5.33301 35 3.83301 33.5 3.83301 31.6667L3.84967 11.6667C3.84967 9.83333 5.33301 8.33333 7.16634 8.33333H23.9997C23.8997 8.86667 23.833 9.43333 23.833 10C23.833 10.5667 23.8997 11.1333 23.9997 11.6667H7.16634L20.4997 20L26.6163 16.1833C27.3997 16.9 28.3163 17.45 29.333 17.8167L20.4997 23.3333L7.16634 15V31.6667H33.833V18.1667C35.0663 17.9167 36.1997 17.3667 37.1663 16.6333ZM27.1663 10C27.1663 12.7667 29.3997 15 32.1663 15C34.933 15 37.1663 12.7667 37.1663 10C37.1663 7.23333 34.933 5 32.1663 5C29.3997 5 27.1663 7.23333 27.1663 10Z" fill="#BB2749"/>
</svg>
