<svg width="32" height="32" viewBox="0 0 32 32" fill="none" xmlns="http://www.w3.org/2000/svg">
<path d="M15.3198 21.3333C16.4932 21.3333 17.5865 20.9867 18.5065 20.4L21.7598 23.6533L23.6532 21.76L20.3998 18.52C20.9865 17.5867 21.3332 16.5067 21.3332 15.3333C21.3332 12.0133 18.6532 9.33334 15.3332 9.33334C12.0132 9.33334 9.33317 12.0133 9.33317 15.3333C9.33317 18.6533 12.0132 21.3333 15.3198 21.3333ZM15.3332 12C17.1732 12 18.6665 13.4933 18.6665 15.3333C18.6665 17.1733 17.1732 18.6667 15.3332 18.6667C13.4932 18.6667 11.9998 17.1733 11.9998 15.3333C11.9998 13.4933 13.4932 12 15.3332 12ZM26.6665 5.33334H5.33317C3.8665 5.33334 2.6665 6.53334 2.6665 8.00001V24C2.6665 25.4667 3.8665 26.6667 5.33317 26.6667H26.6665C28.1332 26.6667 29.3332 25.4667 29.3332 24V8.00001C29.3332 6.53334 28.1332 5.33334 26.6665 5.33334ZM26.6665 24H5.33317V8.00001H26.6665V24Z" fill="#FFD2DD"/>
</svg>
