<svg id="Layer_1" data-name="Layer 1" xmlns="http://www.w3.org/2000/svg" viewBox="0 0 26.67 21.33"><defs><style>.cls-1{fill:#fff;}</style></defs><path class="cls-1" d="M15.32,21.33a5.9,5.9,0,0,0,3.19-.93l3.25,3.25,1.89-1.89L20.4,18.52a5.9,5.9,0,0,0,.93-3.19,6,6,0,1,0-6,6Zm0-9.33A3.34,3.34,0,1,1,12,15.33,3.34,3.34,0,0,1,15.33,12ZM26.67,5.33H5.33A2.67,2.67,0,0,0,2.67,8V24a2.67,2.67,0,0,0,2.66,2.67H26.67A2.67,2.67,0,0,0,29.33,24V8A2.67,2.67,0,0,0,26.67,5.33Zm0,18.67H5.33V8H26.67Z" transform="translate(-2.67 -5.33)"/></svg>