<svg width="25" height="24" viewBox="0 0 25 24" fill="none" xmlns="http://www.w3.org/2000/svg">
<path d="M6.8735 5C6.9335 5.89 7.0835 6.76 7.3235 7.59L6.1235 8.79C5.7135 7.59 5.4535 6.32 5.3635 5H6.8735ZM16.7335 17.02C17.5835 17.26 18.4535 17.41 19.3335 17.47V18.96C18.0135 18.87 16.7435 18.61 15.5335 18.21L16.7335 17.02ZM7.8335 3H4.3335C3.7835 3 3.3335 3.45 3.3335 4C3.3335 13.39 10.9435 21 20.3335 21C20.8835 21 21.3335 20.55 21.3335 20V16.51C21.3335 15.96 20.8835 15.51 20.3335 15.51C19.0935 15.51 17.8835 15.31 16.7635 14.94C16.6635 14.9 16.5535 14.89 16.4535 14.89C16.1935 14.89 15.9435 14.99 15.7435 15.18L13.5435 17.38C10.7135 15.93 8.3935 13.62 6.9535 10.79L9.1535 8.59C9.4335 8.31 9.5135 7.92 9.4035 7.57C9.0335 6.45 8.8335 5.25 8.8335 4C8.8335 3.45 8.3835 3 7.8335 3Z" fill="#77AC2C"/>
</svg>
