<svg width="32" height="32" viewBox="0 0 32 32" fill="none" xmlns="http://www.w3.org/2000/svg">
<path d="M20.6665 14.6666C21.7711 14.6666 22.6665 13.7712 22.6665 12.6666C22.6665 11.5621 21.7711 10.6666 20.6665 10.6666C19.5619 10.6666 18.6665 11.5621 18.6665 12.6666C18.6665 13.7712 19.5619 14.6666 20.6665 14.6666Z" fill="#FFD2DD"/>
<path d="M11.3332 14.6666C12.4377 14.6666 13.3332 13.7712 13.3332 12.6666C13.3332 11.5621 12.4377 10.6666 11.3332 10.6666C10.2286 10.6666 9.33317 11.5621 9.33317 12.6666C9.33317 13.7712 10.2286 14.6666 11.3332 14.6666Z" fill="#FFD2DD"/>
<path d="M15.9998 24C19.0398 24 21.6265 21.7866 22.6665 18.6666H9.33317C10.3732 21.7866 12.9598 24 15.9998 24Z" fill="#FFD2DD"/>
<path d="M15.9865 2.66663C8.6265 2.66663 2.6665 8.63996 2.6665 16C2.6665 23.36 8.6265 29.3333 15.9865 29.3333C23.3598 29.3333 29.3332 23.36 29.3332 16C29.3332 8.63996 23.3598 2.66663 15.9865 2.66663ZM15.9998 26.6666C10.1065 26.6666 5.33317 21.8933 5.33317 16C5.33317 10.1066 10.1065 5.33329 15.9998 5.33329C21.8932 5.33329 26.6665 10.1066 26.6665 16C26.6665 21.8933 21.8932 26.6666 15.9998 26.6666Z" fill="#FFD2DD"/>
</svg>
