<svg width="27" height="27" viewBox="0 0 27 27" fill="none" xmlns="http://www.w3.org/2000/svg">
<rect width="27" height="27" rx="8" fill="#77AC2C"/>
<path d="M22.5778 9.0651C22.3747 8.2526 21.7314 7.60938 20.9528 7.40625C19.4971 7 13.7419 7 13.7419 7C13.7419 7 7.9528 7 6.49707 7.40625C5.71842 7.60938 5.0752 8.2526 4.87207 9.0651C4.46582 10.487 4.46582 13.5339 4.46582 13.5339C4.46582 13.5339 4.46582 16.5469 4.87207 18.0026C5.0752 18.8151 5.71842 19.4245 6.49707 19.6276C7.9528 20 13.7419 20 13.7419 20C13.7419 20 19.4971 20 20.9528 19.6276C21.7314 19.4245 22.3747 18.8151 22.5778 18.0026C22.984 16.5469 22.984 13.5339 22.984 13.5339C22.984 13.5339 22.984 10.487 22.5778 9.0651ZM11.846 16.276V10.7917L16.6533 13.5339L11.846 16.276Z" fill="#DFF1C7"/>
</svg>
